<?xml version="1.0" encoding="UTF-8" standalone="no"?>
<!DOCTYPE svg PUBLIC "-//W3C//DTD SVG 1.1//EN" "http://www.w3.org/Graphics/SVG/1.1/DTD/svg11.dtd">
<!-- Generated by Microsoft Visio, SVG Export logo.svg Page-1 -->
<svg xmlns="http://www.w3.org/2000/svg" xmlns:xlink="http://www.w3.org/1999/xlink" xmlns:ev="http://www.w3.org/2001/xml-events"
		xmlns:v="http://schemas.microsoft.com/visio/2003/SVGExtensions/" width="8.26772in" height="11.6929in"
		viewBox="0 0 595.276 841.89" xml:space="preserve" color-interpolation-filters="sRGB" class="st6">
	<v:documentProperties v:langID="8192" v:metric="true" v:viewMarkup="false">
		<v:userDefs>
			<v:ud v:nameU="msvNoAutoConnect" v:val="VT0(1):26"/>
		</v:userDefs>
	</v:documentProperties>

	<style type="text/css">
	<![CDATA[
		.st1 {fill:#50e6ff;stroke:none;stroke-linecap:round;stroke-linejoin:round;stroke-width:0.24}
		.st2 {fill:#32bedd;stroke:none;stroke-linecap:round;stroke-linejoin:round;stroke-width:0.24}
		.st3 {fill:#9cebff;stroke:none;stroke-linecap:round;stroke-linejoin:round;stroke-width:0.24}
		.st4 {fill:none;stroke:#047ad6;stroke-linecap:round;stroke-linejoin:round;stroke-width:6}
		.st5 {fill:#0078d4;stroke:none;stroke-linecap:butt;stroke-width:0.75}
		.st6 {fill:none;fill-rule:evenodd;font-size:12px;overflow:visible;stroke-linecap:square;stroke-miterlimit:3}
	]]>
	</style>

	<g v:mID="0" v:index="1" v:groupContext="foregroundPage">
		<title>Page-1</title>
		<v:pageProperties v:drawingScale="0.0393701" v:pageScale="0.0393701" v:drawingUnits="24" v:shadowOffsetX="8.50394"
				v:shadowOffsetY="-8.50394"/>
		<g id="group18-1" transform="translate(198.425,-488.17)" v:mID="18" v:groupContext="group">
			<title>Sheet.18</title>
			<g id="shape6-2" v:mID="6" v:groupContext="shape" transform="translate(-785.197,841.792) rotate(-90)">
				<title>Triangle.6</title>
				<v:userDefs>
					<v:ud v:nameU="visVersion" v:val="VT0(15):26"/>
					<v:ud v:nameU="visMasterStencil" v:prompt="" v:val="VT4(Basic_M.vssx)"/>
				</v:userDefs>
				<path d="M62.36 841.89 L33.31 787.75 L0 841.89 L62.36 841.89 Z" class="st1"/>
			</g>
			<g id="shape4-4" v:mID="4" v:groupContext="shape" transform="translate(844.673,746.122) rotate(90)">
				<title>Triangle</title>
				<v:userDefs>
					<v:ud v:nameU="visVersion" v:val="VT0(15):26"/>
					<v:ud v:nameU="visMasterStencil" v:prompt="" v:val="VT4(Basic_M.vssx)"/>
				</v:userDefs>
				<path d="M62.36 841.89 L33.17 787.75 L0 841.89 L62.36 841.89 Z" class="st2"/>
			</g>
			<g id="shape3-6" v:mID="3" v:groupContext="shape" transform="translate(2.83465,-62.4603)">
				<title>Diamond</title>
				<v:userDefs>
					<v:ud v:nameU="visVersion" v:prompt="" v:val="VT0(15):26"/>
					<v:ud v:nameU="visMasterStencil" v:prompt="" v:val="VT4(Basic_M.vssx)"/>
				</v:userDefs>
				<path d="M53.86 841.89 L107.72 808.58 L53.86 775.28 L0 808.58 L53.86 841.89 Z" class="st3"/>
			</g>
			<g id="shape1-8" v:mID="1" v:groupContext="shape" transform="translate(400.194,68.9566) rotate(30)">
				<title>Hexagon</title>
				<v:userDefs>
					<v:ud v:nameU="visVersion" v:val="VT0(15):26"/>
					<v:ud v:nameU="visMasterStencil" v:prompt="" v:val="VT4(Basic_M.vssx)"/>
				</v:userDefs>
				<path d="M86.15 728.5 L27.23 728.5 A5.66929 5.66929 -180 0 0 22.32 731.34 L-7.13 782.36 A5.66929 5.66929 -180 0 0
							 -7.13 788.03 L22.32 839.06 A5.66929 5.66929 -180 0 0 27.23 841.89 L86.15 841.89 A5.66929 5.66929 -180
							 0 0 91.06 839.06 L120.52 788.03 A5.66929 5.66929 -180 0 0 120.52 782.36 L91.06 731.34 A5.66929 5.66929
							 -180 0 0 86.15 728.5 Z" class="st4"/>
			</g>
		</g>
		<g id="group21-10" transform="translate(262.205,-517.772)" v:mID="21" v:groupContext="group">
			<title>Users, People</title>
			<g id="shape22-11" v:mID="22" v:groupContext="shape">
				<title>Sheet.22</title>
				<path d="M32.69 815.29 C33.63 815.77 34.48 816.36 35.24 817.06 C36 817.76 36.64 818.54 37.18 819.4 C37.71 820.26
							 38.12 821.18 38.41 822.17 C38.7 823.16 38.85 824.19 38.85 825.24 L36.07 825.24 C36.07 824.1 35.85 823.02
							 35.41 822.01 C34.97 821 34.37 820.12 33.62 819.37 C32.87 818.62 31.99 818.02 30.98 817.58 C29.97 817.14
							 28.89 816.92 27.75 816.92 C26.61 816.92 25.53 817.14 24.52 817.58 C23.51 818.02 22.62 818.62 21.87 819.37
							 C21.12 820.12 20.52 821 20.08 822.01 C19.64 823.02 19.42 824.1 19.42 825.24 C19.42 826.56 19.12 827.81
							 18.52 828.99 C17.92 830.18 17.1 831.16 16.04 831.94 C16.98 832.42 17.83 833.01 18.59 833.71 C19.35 834.41
							 19.99 835.19 20.53 836.05 C21.06 836.91 21.48 837.83 21.76 838.82 C22.05 839.81 22.2 840.84 22.2 841.89
							 L19.42 841.89 C19.42 840.75 19.2 839.67 18.76 838.66 C18.32 837.65 17.72 836.77 16.97 836.02 C16.22
							 835.26 15.34 834.67 14.33 834.23 C13.32 833.79 12.24 833.57 11.1 833.57 C9.96 833.57 8.88 833.79 7.87
							 834.23 C6.86 834.67 5.98 835.26 5.22 836.02 C4.47 836.77 3.88 837.65 3.44 838.66 C2.99 839.67 2.77 840.75
							 2.77 841.89 L0 841.89 C0 840.84 0.14 839.81 0.43 838.82 C0.72 837.83 1.13 836.91 1.67 836.05 C2.2 835.19
							 2.85 834.41 3.61 833.71 C4.37 833.01 5.22 832.42 6.16 831.94 C5.1 831.16 4.27 830.18 3.67 828.99 C3.07
							 827.81 2.77 826.56 2.77 825.24 C2.77 824.1 2.99 823.02 3.44 822.01 C3.88 821 4.47 820.12 5.22 819.37
							 C5.98 818.62 6.86 818.02 7.87 817.58 C8.88 817.14 9.96 816.92 11.1 816.92 C12.41 816.92 13.66 817.22
							 14.85 817.82 C16.03 818.42 17.02 819.24 17.8 820.3 C18.35 819.21 19.05 818.25 19.9 817.39 C20.75 816.54
							 21.72 815.84 22.8 815.29 C21.75 814.51 20.92 813.53 20.32 812.34 C19.72 811.16 19.42 809.91 19.42 808.59
							 C19.42 807.45 19.64 806.37 20.08 805.36 C20.52 804.35 21.12 803.47 21.87 802.72 C22.62 801.97 23.51
							 801.37 24.52 800.93 C25.53 800.49 26.61 800.27 27.75 800.27 C28.89 800.27 29.97 800.49 30.98 800.93
							 C31.99 801.37 32.87 801.97 33.62 802.72 C34.37 803.47 34.97 804.35 35.41 805.36 C35.85 806.37 36.07
							 807.45 36.07 808.59 C36.07 809.91 35.77 811.16 35.17 812.34 C34.57 813.53 33.74 814.51 32.69 815.29
							 ZM11.1 830.79 C11.85 830.79 12.57 830.64 13.25 830.35 C13.92 830.05 14.51 829.65 15.01 829.15 C15.51
							 828.66 15.91 828.07 16.2 827.4 C16.5 826.73 16.65 826.01 16.65 825.24 C16.65 824.49 16.5 823.77 16.2
							 823.1 C15.91 822.42 15.51 821.83 15.01 821.33 C14.51 820.83 13.92 820.43 13.25 820.14 C12.57 819.84
							 11.85 819.69 11.1 819.69 C10.33 819.69 9.61 819.84 8.94 820.14 C8.27 820.43 7.68 820.83 7.19 821.33
							 C6.69 821.83 6.29 822.42 5.99 823.1 C5.7 823.77 5.55 824.49 5.55 825.24 C5.55 826.01 5.7 826.73 5.99
							 827.4 C6.29 828.07 6.69 828.66 7.19 829.15 C7.68 829.65 8.27 830.05 8.94 830.35 C9.61 830.64 10.33 830.79
							 11.1 830.79 ZM22.2 808.59 C22.2 809.36 22.35 810.08 22.64 810.75 C22.94 811.42 23.34 812.01 23.83 812.51
							 C24.33 813 24.92 813.4 25.59 813.7 C26.26 813.99 26.98 814.14 27.75 814.14 C28.5 814.14 29.21 813.99
							 29.89 813.7 C30.57 813.4 31.16 813 31.66 812.51 C32.16 812.01 32.56 811.42 32.85 810.75 C33.15 810.08
							 33.3 809.36 33.3 808.59 C33.3 807.84 33.15 807.13 32.85 806.45 C32.56 805.77 32.16 805.18 31.66 804.68
							 C31.16 804.18 30.57 803.78 29.89 803.49 C29.21 803.19 28.5 803.04 27.75 803.04 C26.98 803.04 26.26 803.19
							 25.59 803.49 C24.92 803.78 24.33 804.18 23.83 804.68 C23.34 805.18 22.94 805.77 22.64 806.45 C22.35
							 807.13 22.2 807.84 22.2 808.59 Z" class="st5"/>
			</g>
		</g>
	</g>
</svg>
